# xmcd
#
# Track frame offsets: 
#        150
#        17710
#        36542
#        51860
#        88967
#        92672
#        109697
#        125862
#        141017
#        157392
#
# Disc length: 2372 seconds
#
# Revision: 2
# Processed by: cddbd v1.4PL0 Copyright (c) Steve Scherf et al.
# Submitted via: ExactAudioCopy v0.90b4
#
DISCID=9209420a
DTITLE=Joe Ely - Lord Of The Highway
DYEAR=1900
DGENRE=
TTITLE0=Lord Of The Highway
TTITLE1=Don't Put A Lock On My Heart
TTITLE2=Me And Billy The Kid
TTITLE3=Letter To L.A.
TTITLE4=No Rope Daisy-O
TTITLE5=My Baby Thinks She's French
TTITLE6=Everybody Got Hammered
TTITLE7=Are You Listenin' Lucky?
TTITLE8=Row Of Dominoes
TTITLE9=Silver City
EXTD=
EXTT0=
EXTT1=
EXTT2=
EXTT3=
EXTT4=
EXTT5=
EXTT6=
EXTT7=
EXTT8=
EXTT9=
PLAYORDER=
